<?xml version="1.0" encoding="UTF-8"?>
<svg id="_Ñëîé_1" data-name="Ñëîé 1" xmlns="http://www.w3.org/2000/svg" viewBox="0 0 1181.49 934.88">
  <defs>
    <style>
      .cls-1 {
        fill: #244359;
      }

      .cls-1, .cls-2, .cls-3, .cls-4, .cls-5, .cls-6, .cls-7, .cls-8, .cls-9, .cls-10, .cls-11 {
        stroke-width: 0px;
      }

      .cls-2 {
        fill: #6c95b3;
      }

      .cls-3 {
        fill: #8fb3cc;
      }

      .cls-4 {
        fill: #2e4e66;
      }

      .cls-5 {
        fill: #406680;
      }

      .cls-6 {
        fill: #5c8099;
      }

      .cls-7 {
        fill: #1b374d;
      }

      .cls-8 {
        fill: #0f2433;
      }

      .cls-9 {
        fill: #1f3a4d;
      }

      .cls-10 {
        fill: #244259;
      }

      .cls-11 {
        fill: #8fb2cc;
      }
    </style>
  </defs>
  <g>
    <g>
      <path class="cls-8" d="M1067.07,320.06s-30.52-2.59-72.66,5.11c-1.34.24-1.92,1.85-1.04,2.89,5.13,6.14,19.86,23.15,35.91,36.12.88.71.28,2.13-.84,1.98-13.33-1.69-56.35-7.12-73.88-9.01-1.91-.21-3.16,1.93-2.06,3.5,7.99,11.42,32.67,44.67,61.68,63.97,1.45.97.95,3.21-.78,3.43-10.15,1.34-33.43,3.94-49.6,1.91-1.76-.22-3.09,1.56-2.37,3.19,4.11,9.26,15.39,33.34,28.49,49.9.74.94.05,2.3-1.15,2.26-4.69-.15-14-.93-21.56-4.65-1.13-.56-2.35.57-1.84,1.73,5.07,11.5,21.82,47.09,44.33,70.28,1.4,1.44.29,3.85-1.72,3.73-10.7-.65-34.5-2.86-56.58-10.23-2.73-.91-5.72.13-7.26,2.55-4.09,6.41-10.73,20.16-8.65,39.65,0,0-199.61-256.85-574.75-457.12,0,0-4.04-1.4-3.09-7.08s6.37-4.36,6.37-4.36c0,0,374.5,19.27,703.04,200.22Z"/>
      <path class="cls-10" d="M930.19,554.84c-.38,1.29-2.04,1.65-2.92.63-22.63-26.48-65.42-76.53-128.7-134.88-85.56-78.89-220.52-190.03-412.2-287.01-1.02-.52-.59-2.07.56-1.95,35.86,3.51,110.17,15.26,203.81,34.35,77.75,15.85,153.43,38.05,224.93,62.03,74.25,24.9,139.77,51.27,208.07,82.67,1.14.53.82,2.25-.44,2.31-9.09.42-19.24.33-30.14,2.26-3.25.57-6.26,2.28-8.13,4.99-3.07,4.44-2.66,10.29.65,14.25,2.81,3.36,7.9,9.29,14.34,16.03.73.77.1,2.03-.95,1.9-16.01-1.99-33.66-4.13-43.45-5.19-.44-.05-.89-.07-1.33-.07-4.93,0-9.37,2.94-11.29,7.58-1.63,3.94-.96,8.46,1.49,11.95,7.4,10.54,24.09,32.81,45.14,51.5.85.75.37,2.14-.76,2.21-3.7.21-7.5.34-11.21.34-4.84,0-9.08-.22-12.62-.67-.51-.06-1.03-.1-1.54-.1-4.73,0-9.04,2.69-11.12,7.08-1.56,3.3-1.45,7.14.04,10.47,2.93,6.59,8.92,19.39,16.53,32.27.26.44-.11.96-.61.88-.58-.09-1.16-.14-1.74-.14-3.85,0-7.4,1.93-9.51,5.16-2.09,3.21-2.42,7.23-.86,10.75,4.75,10.77,15.8,34,31.13,55.01.84,1.15-.13,2.74-1.54,2.53-9.54-1.46-20.52-3.72-30.99-7.19-.7-.23-1.4-.46-2.12-.6-6.8-1.35-13.42,1.56-17,7.17-2.29,3.58-3.71,5.28-5.53,11.48Z"/>
      <g>
        <ellipse class="cls-4" cx="794.57" cy="332.54" rx="14.3" ry="176.32" transform="translate(109.3 854.39) rotate(-60)"/>
        <path class="cls-4" d="M936.08,347.32c-1.92,4.09-44.4-11.79-94.87-35.47-50.48-23.69-89.84-46.21-87.92-50.3,1.92-4.09,44.4,11.79,94.87,35.47s89.84,46.21,87.92,50.3Z"/>
      </g>
      <g>
        <path class="cls-7" d="M401.12,136.16c20.4,2.97,130.08,19.29,217.56,39.86,1.75.41,1.86,2.84.17,3.43-37.27,13.08-42.78,37.98-19.46,73.62.73,1.12-.59,2.43-1.69,1.67-21.07-14.51-101.2-68.49-196.9-117.53-.57-.29-.3-1.15.33-1.06Z"/>
        <path class="cls-7" d="M951.44,458.93c-12.19-9.98-49.81-37.28-109.78-49.73-2.18-.45-3.78,2.03-2.46,3.83,12.53,17.01,57.21,73.78,123.63,115.34,1.39.87,2.96-.82,2-2.14-10.41-14.33-32.72-49.15-13.67-61.34,2.09-1.34,2.21-4.38.28-5.96Z"/>
        <path class="cls-7" d="M997.9,305.51c-16.46-6.18-69.38-25.04-122.15-32.94-2.21-.33-3.44,2.47-1.71,3.87,14.92,12.1,56.62,43.93,109.04,67.36.92.41,1.73-.75,1.02-1.47-5.2-5.22-13.22-15.13-9.74-23.83,3.46-8.65,15.89-10.59,23.22-10.97,1.13-.06,1.37-1.63.31-2.03Z"/>
      </g>
    </g>
    <g>
      <path class="cls-8" d="M453.86,36.39s-7.03,7.34-8.48,15.42c-.16.9.32,1.79,1.17,2.15,3.52,1.48,13.65,5.12,28.29,5.37.77.01,1.25.82.9,1.5-.88,1.69-2.57,4.36-4.85,5.62-.5.27-.47.98.06,1.19,4.45,1.73,18.51,6.38,38.81,5.18.72-.04,1.1.83.57,1.31-1.77,1.64-5.05,4.22-9.03,5.37-.72.21-.87,1.16-.26,1.59,4.58,3.24,18.68,12.35,37.73,16.45.73.16.8,1.17.11,1.44-2.49.98-6.7,2.36-10.77,2.36,0,0,23,11.33,45.33,17,0,0-94.33-19.33-199.67-28,0,0-3.42-.17-5-3.92-1.58-3.75,1.58-6.25,2.75-7.25,1.17-1,34.08-27.97,82.33-42.79Z"/>
      <path class="cls-10" d="M444.12,43.49c.33-.4-.08-.99-.57-.82-8.08,2.89-39.21,15.69-68.72,38.68,0,0-2.13,1.62-1.41,3.44.69,1.72,2.81,1.62,5.19,1.81,2.34.18,73.01,4.98,155.43,21.01.39.08.57-.47.19-.62-4.22-1.67-11.37-3.69-16.61-6.85-.55-.33-.3-1.18.34-1.17,2.21.06,5.66.01,8.97-.6.42-.08.45-.67.03-.78-5.39-1.44-23.04-6.69-38.23-17.44-.58-.41-.33-1.34.39-1.39,2.02-.15,5.21-.59,8.56-1.79.4-.14.34-.74-.09-.78-5.34-.52-22.28-2.45-33.69-7.07-.72-.29-.8-1.28-.13-1.69,1.24-.76,2.94-2,4.3-3.69.4-.49.05-1.23-.58-1.26-3.73-.17-14.22-1.14-26.12-6.47-.95-.42-1.53-1.4-1.47-2.44.13-2.16.89-6.03,4.21-10.08Z"/>
      <g>
        <path class="cls-4" d="M486.57,80.43c.06,1.18-13.6,2.85-30.51,3.75-16.91.89-30.67.66-30.74-.52-.06-1.18,13.6-2.85,30.51-3.75,16.91-.89,30.67-.66,30.74.52Z"/>
        <path class="cls-4" d="M460.38,68.77c.19,1.16-10.21,3.81-23.22,5.91-13.01,2.1-23.71,2.86-23.9,1.69-.19-1.16,10.21-3.81,23.22-5.91,13.01-2.1,23.71-2.86,23.9-1.69Z"/>
      </g>
      <g>
        <path class="cls-7" d="M403.52,66.01c.13,4.04,1.36,15.16,22.27,22.6.39.14.26.72-.15.68-7.99-.84-28.76-2.36-47.78-4.25-1.39-.14-5.09-.84.41-4.84,5.23-3.8,16.01-10.72,24.08-14.88.53-.27,1.16.1,1.18.69Z"/>
        <path class="cls-7" d="M437.87,48.8c-1.16,2.45-3.31,9.14,6.82,10.99.32.06.34.51.02.57-3.65.79-13.45,2.66-24.17,2.67-.64,0-.96-.78-.51-1.23,2.51-2.49,8.84-8.34,17.4-13.38.25-.15.55.12.42.38Z"/>
        <path class="cls-7" d="M514.01,96.42c-1.17.92-3.25,3.29,1.6,6.01.21.12.1.44-.14.39-5.71-1.23-25.46-5.33-44.48-7.45-.51-.06-.51-.79,0-.85,7.18-.91,24.78-2.45,42.9,1.34.26.06.34.4.13.56Z"/>
      </g>
    </g>
    <g>
      <path class="cls-8" d="M320.61,173.88c157.39,185.09,276.1,395.66,357,631.13,0,0-43.65-30.7-101.83-34.78-2.43-.17-4.85.48-6.82,1.9-8.6,6.16-32.24,25.87-38.9,60.05-.61,3.15-3.78,5.12-6.88,4.25-22.17-6.21-101.02-30.98-142.77-79.67-1.16-1.35-3.32-1.12-4.17.44-3.93,7.2-12.43,25.82-9.61,47.92.45,3.51-3.1,6.19-6.38,4.86-25.56-10.3-106.81-46.67-144.48-106.29-.67-1.06-2.28-.86-2.63.35-1.72,5.98-4.73,20-.67,34.69.48,1.73-1.74,2.88-2.87,1.48-14.69-18.2-49.4-56.68-90.45-71.18-1.85-.65-3.92,0-5,1.64-3.81,5.79-11.6,20.98-8.78,45.17.21,1.84-1.94,2.97-3.33,1.75-9.82-8.59-34.43-32.47-41.03-60.99-.27-1.18-1.94-1.21-2.26-.04-1.84,6.81-4.75,20.22-3.31,33.02.27,2.43-2.72,3.79-4.33,1.95-9.9-11.39-30.99-36.29-30.99-63.52,0-52-6.52-83.62-6.52-83.62,0,0,88.52-12.88,190.02,11.12s114.83,6.33,120.17-.83c5.33-7.17,41.14-71.09,5.33-227.33-7.46-32.56-29.9-103.84-22.12-131.78,1.4-5.03,3.54-13.64,6.01-19.98.71-1.82,3.78-5.5,7.62-1.7Z"/>
      <path class="cls-10" d="M522.23,821.89c-.55,1.96-2.58,3.09-4.53,2.49-29.03-8.95-96.71-33.5-131.83-76.67l-4.33-5.33c-2.1-2.58-6.09-2.39-7.94.38l-3.81,5.71c-.66.99-13.05,19.94-13.71,45.61-.04,1.57-1.65,2.59-3.08,1.96-32.48-14.34-99.32-48.74-130.32-100.18l-5.04-8.36c-2.25-3.73-7.8-3.24-9.36.82l-3.5,9.11c-.2.51-2.17,5.77-3.38,13.65-.24,1.57-2.16,2.2-3.26,1.06-19.25-19.87-47.22-43.43-78.96-53.64l-2.9-.93c-2.01-.65-4.22-.04-5.62,1.53l-2.02,2.27c-.56.63-9.94,11.46-12.95,31.72-.2,1.34-1.78,1.91-2.81,1.04-9.35-7.96-24.02-33.94-28.26-46.36-1.75-5.12-6.88-5-9.38-.25-2.55,4.85-6.43,11.55-8.32,17.52-.39,1.25-2.05,1.48-2.74.37-6.73-10.84-14.06-24.08-14.06-37.81,0-29.6-4.53-61.29-6.12-71.52-.29-1.84,1.05-3.54,2.91-3.69,10.36-.82,29.8-1.78,47.59-1.78,29.59,0,75.62,2.54,126.82,14.65,34.91,8.25,63.1,12.44,83.79,12.44h0c29.97,0,40.42-8.61,46.69-17.04,1.41-1.9,13.96-19.75,19.97-62.33,6.78-47.97,2.43-106.24-12.92-173.2-1.57-6.84-3.7-15.05-6.18-24.57-8.57-32.93-21.51-82.69-16.06-102.3.28-.99.58-2.12.91-3.34.28-1.05.59-2.19.91-3.37.41-1.49,2.34-1.88,3.3-.68,72.75,90.79,138.59,184.2,195.35,284.62,53.88,95.34,100.38,198,140.76,303.75.54,1.41-.91,2.75-2.28,2.11-19.93-9.3-49.15-19.63-82.96-21.32h0c-1.97-.1-3.92.39-5.61,1.39h0c-1.51.9-33.43,20.3-44.77,60.47Z"/>
      <g>
        <ellipse class="cls-4" cx="451.12" cy="660.67" rx="14.31" ry="139.99" transform="translate(-345.28 584.95) rotate(-50.24)"/>
        <ellipse class="cls-4" cx="347.2" cy="657.14" rx="10.41" ry="75.33" transform="translate(-196.97 150.92) rotate(-19.22)"/>
      </g>
      <g>
        <path class="cls-7" d="M323.16,201.12c14.62,18.6,104.03,133.59,165.41,241.42,1.03,1.8-.39,4.02-2.46,3.84-18.51-1.6-84.54-.7-129.93,84.89-1.12,2.11-4.32.97-3.83-1.37,5.89-28.1,13.9-84.38,2.75-149.89-16-94-19.33-84.67-26-111.33-6.24-24.95-10.9-50.04-8.58-66.82.18-1.31,1.82-1.78,2.64-.74Z"/>
        <path class="cls-7" d="M28.91,557.89c-.16-.83.43-1.61,1.27-1.67,11.25-.8,80.61-5.04,137.18,7.78,57.58,13.05,84.94,17.41,114.32,17.94,1.38.02,1.72,1.93.43,2.41-17.77,6.69-72.85,25.41-136,26.64-72.97,1.42-94.3,23.5-101.87,37.72-.59,1.11-2.12,1.25-2.92.28-2.86-3.51-8.12-11.35-7.88-21.33.33-13.4.33-44.09-4.53-69.79Z"/>
        <path class="cls-7" d="M607.78,670.89c7.79,18.8,25.98,62.89,37.97,93.17.74,1.86-1.24,3.63-3.01,2.69-6.21-3.28-18.17-8.4-37.68-12.26-5.4-1.07-10.13-4.25-13.19-8.83-29.27-43.81-119.74-124.9-189.56-182.03-2.49-2.03-.17-5.97,2.82-4.8,37.98,14.94,132.84,54.56,192.93,99.58,4.3,3.22,7.67,7.51,9.73,12.47Z"/>
        <path class="cls-7" d="M194.41,688.63c-.23,1.17,1.27,1.84,1.99.89,3.88-5.1,11.19-13.21,18.08-12.52,9.29.93,16.54,23.45,36.38,39.48,1.74,1.4,4.32.05,4.18-2.18-1-15.18-.58-58.13,30.48-97.97,1.06-1.36-.12-3.32-1.81-2.98-17.79,3.49-78.48,19.39-89.3,75.28Z"/>
      </g>
    </g>
    <g>
      <path class="cls-8" d="M919.61,598.35s-26.23-2.48-52.83,9.39c-2.35,1.05-3.41,3.77-2.35,6.11,5.1,11.2,17.78,44.89,11.32,91.33-.29,2.12-3.2,2.5-4.02.52-3.23-7.82-9.54-19.77-19.87-26.67-1.63-1.09-3.8.2-3.63,2.15,1.34,14.91,4.05,64.08-13.24,105.09-1.19,2.83-5.09,3.15-6.73.54-4.24-6.74-12.64-17.21-26.92-24.15-3.77-1.83-8.3-.86-11.05,2.31-6.85,7.91-18.45,24.78-16.89,47.13.27,3.94-4.01,6.52-7.37,4.47-12.53-7.65-37.37-20.23-70.38-24.14,0,0-85.55-331.42-354.65-634.45-1.07-1.2-2.34-3.53.22-6.44,2.33-2.64,4.54-1.86,7.54-.53,3,1.33,301.67,141.67,570.83,447.33Z"/>
      <path class="cls-10" d="M758.53,800.98c-13.36-6.68-32.11-14-54.98-17.56-6.24-21.97-29.14-97.65-75.2-198.72-47.81-104.91-130.63-258.52-258.03-408.24-1.11-1.3.38-3.18,1.89-2.38,31.48,16.62,87.82,48.23,157.68,95.51,62.56,42.34,123.65,88.87,181.58,138.28,65.68,56.02,127.47,115.95,183.95,178.39,1.07,1.19.38,3.08-1.2,3.32-10.76,1.6-23.6,4.86-36.3,11.31l-5.68,2.88c-1.97,1-2.72,3.45-1.63,5.38l3.12,5.56c.15.28,12.53,23.17,13.71,59.51.06,1.93-2.24,2.93-3.65,1.61-3.39-3.19-7.26-6.01-11.66-8.14l-10.08-4.87c-2.82-1.36-6.03.95-5.62,4.06l1.44,11.1c.07.54,5.75,46.61-6.64,89.05-.65,2.21-3.43,2.88-5.05,1.25-6.56-6.58-15.57-13.23-27.62-17.64h0c-3.41-1.25-7.23-.55-9.97,1.82h0c-1.07.92-20.64,18.18-24.62,45.67-.37,2.56-3.1,4.02-5.42,2.87Z"/>
      <g>
        <ellipse class="cls-4" cx="728.11" cy="535.07" rx="14.31" ry="152" transform="translate(-171.33 621.37) rotate(-41.79)"/>
        <path class="cls-4" d="M776.57,740.44c-7.1,3.48-36.31-41.48-65.26-100.43-28.95-58.95-46.66-109.56-39.56-113.05,7.1-3.48,36.31,41.48,65.26,100.43,28.95,58.95,46.66,109.56,39.56,113.05Z"/>
      </g>
      <g>
        <path class="cls-7" d="M574.38,312.11c-15.52,2.47-52.61,15.18-39.42,80.57.33,1.63-1.85,2.48-2.7,1.06-15.92-26.81-70.09-114.77-147.29-205.54-1.15-1.35.45-3.28,1.99-2.4,26.54,15.17,115.32,66.95,188.56,121.7,1.82,1.36,1.11,4.25-1.14,4.61Z"/>
        <path class="cls-7" d="M875.31,582.87c-6.71,1.42-19.77,4.73-30.64,10.73-3.54,1.95-5.44,5.94-4.83,9.93.84,5.44,1.8,13.86,1.51,22.67-.06,1.92-2.63,2.52-3.5.8-10.02-19.6-44.25-83.42-90.83-136.18-1.37-1.56.4-3.86,2.25-2.91,21.53,11.07,78.55,42.76,127.25,90.85,1.38,1.36.68,3.71-1.21,4.11Z"/>
        <path class="cls-7" d="M704.4,679.19c8.95,15.55,31,51.69,57.76,79.78,1.73,1.81,2.09,4.52.95,6.74-2.05,3.98-5.11,10.48-6.39,16.12-.51,2.23-2.97,3.41-5.05,2.45-5.55-2.56-15.7-6.59-27.02-7.91-2.62-.3-4.68-2.39-4.92-5.01-1.2-13.15-5.51-52.21-17.03-91.43-.31-1.07,1.15-1.71,1.71-.74Z"/>
      </g>
    </g>
  </g>
  <g>
    <path class="cls-5" d="M1179.05,394.46c-8.91-39.23-39.45-60.28-51.35-67.15-1.69-.97-3.1-2.38-3.96-4.13-2.9-5.9-8.18-11.56-15.24-15.63-5.53-3.19-11.35-4.96-16.77-5.36-3.89-.29-7.69-1.31-11.1-3.2C788.72,137.77,480.31,99.8,373.37,91.18c-5.97-.48-8.4-7.89-3.89-11.83,22.94-20.08,53.85-34.14,77.67-42.87,4.06-1.49,8.48-1.85,12.67-.75,3.19.84,6.73,1.05,10.38.49,4.13-.64,9.33-3.95,12.3-6.05,1.71-1.21,3.69-2.01,5.77-2.3,39.6-5.43,76.71,16.4,87.92,23.79.93.61,2.07-.42,1.56-1.41C550.4-2.07,495.35,1.83,481.47,3.73c-2.04.28-4.1.09-6.09-.43-3.18-.84-6.71-1.05-10.35-.49-5.62.87-10.45,3.41-13.77,6.86-2.73,2.83-6.04,5.05-9.82,6.13-50.86,14.59-85.88,43.81-99.93,57.19-3.71,3.53-8.27,6.1-13.27,7.18-10.25,2.23-19.44,13.16-21.62,24.35-3.5,18-24.5,35.5-24.5,35.5-26,13-20.58,34.99-11,49,9.75,14.25,29.33,109,22,153-8.89,53.37-14.05,122.29-15.54,144.08-.34,5.03-4.54,8.94-9.57,8.88-11.84-.15-37.54-6.53-89.88-39.96-83-53-162-54-162-54-18.19,45.97-18.25,93.63,0,143,143-22,281.67,51.33,307.67,10.67,26-40.67,21.33-147.33,8-213.33-9.25-45.77-32.67-127.83-23.33-151.33,2.24-5.64,3.69-10.36,4.55-14.43.79-3.75,5.52-4.97,7.99-2.03,217.71,259.72,319.33,516.18,355.29,623.25,1.65,4.93,1.62,10.3-.31,15.12-2.55,6.36-3.06,14.53-.92,22.88,2.26,8.83,7.01,16.05,12.7,20.35,1.48,1.12,2.58,2.67,3.24,4.4,10.38,27.2,6.56,59.27,4.52,71.44-.21,1.25,1.42,1.9,2.15.86,20.77-29.49,19.04-62.14,16.45-78.08-.28-1.7-.08-3.45.66-5.01,3.16-6.57,3.98-15.44,1.65-24.54-2.25-8.82-7-16.04-12.69-20.34-3.83-2.89-6.67-6.88-8.06-11.47C599.22,474.65,407.52,233.99,341.33,157.34c-3.17-3.67,1.07-9.01,5.38-6.77,305.79,159.19,499.13,361.15,569.94,443.02,2.81,3.25,4.32,7.46,4.05,11.76-.46,7.32,2.2,15.91,7.89,23.49,5.49,7.31,12.68,12.16,19.62,13.92,1.82.46,3.51,1.35,4.84,2.68,21.76,21.64,30.89,55.2,33.52,66.8.23,1,1.67,1.01,1.9,0,8.82-37.87-7.94-69.24-16.19-81.76-1.03-1.56-1.62-3.37-1.6-5.24.06-7-2.61-14.98-7.94-22.07-5.53-7.35-12.77-12.22-19.74-13.96-3.87-.96-7.25-3.31-9.77-6.4-208.45-255.77-475.97-405.54-571.35-453.77-3.5-1.77-1.98-7.08,1.93-6.72,346.7,31.65,602.4,147.75,697.12,196.69,5.04,2.6,9.07,6.7,11.9,11.62,3.03,5.27,7.96,10.23,14.33,13.91,8.23,4.75,17.11,6.34,24.33,4.98,2.28-.43,4.63-.3,6.81.46,28.62,9.97,51.16,35.75,58.84,45.39.72.9,2.16.21,1.91-.91Z"/>
    <path class="cls-9" d="M696.67,934.88c-.61,0-1.22-.15-1.8-.46-1.39-.76-2.08-2.4-1.82-3.96,2.06-12.34,5.68-43.56-4.41-70-.52-1.36-1.35-2.5-2.41-3.3-6.35-4.79-11.32-12.71-13.62-21.72-2.2-8.61-1.84-17.28,1.03-24.43,1.67-4.17,1.76-8.93.26-13.4-33.55-99.9-135.3-360.55-354.83-622.44-.75-.9-1.7-.77-2.08-.68-.3.07-1.29.41-1.55,1.62-.93,4.41-2.46,9.26-4.67,14.83-6.89,17.34,5.44,70.62,15.33,113.44,3.08,13.3,5.98,25.86,8.13,36.48,12.88,63.78,18.81,172.7-8.34,215.18-13.68,21.39-53.89,13.82-109.56,3.34-56.8-10.7-127.48-24.01-199.84-12.88-1.18.18-2.31-.49-2.73-1.6-18.36-49.66-18.35-98.38.02-144.79.38-.96,1.31-1.61,2.36-1.58.8.01,80.67,1.62,163.31,54.39,53.43,34.12,78.42,39.43,88.57,39.56,3.66.07,6.79-2.83,7.05-6.55,1.39-20.25,6.6-90.51,15.57-144.32,7.32-43.93-12.68-138.15-21.6-151.18-4.22-6.17-10.8-18.44-7.47-31.33,2.12-8.17,7.85-14.92,17.05-20.07,1.62-.91,3.13-2.01,4.49-3.28,5.6-5.25,18.47-18.5,21.04-31.71,2.45-12.62,12.57-23.93,23.54-26.31,4.41-.96,8.59-3.22,12.08-6.55,13.03-12.4,48.94-42.85,100.97-57.78,3.15-.9,6.08-2.74,8.71-5.47,3.84-3.97,9.23-6.67,15.19-7.59,3.83-.59,7.76-.4,11.37.54,1.78.47,3.5.59,5.11.37,6.77-.93,24.62-2.49,44.11,3,24.34,6.86,42.75,21.94,54.72,44.84.76,1.45.46,3.15-.72,4.27-1.24,1.16-3.15,1.22-4.57.29-10.58-6.95-47.33-28.61-86.06-23.3-1.65.23-3.26.87-4.66,1.86-3.64,2.58-8.91,5.8-13.36,6.48-3.85.6-7.79.41-11.4-.54-3.54-.93-7.41-.7-11.17.68-22.3,8.18-53.7,22.15-76.79,42.32-1.31,1.15-1.89,2.98-1.35,4.64.55,1.68,1.93,2.77,3.7,2.91,51.23,4.13,156.34,15.69,284.65,46.74,155.22,37.56,297.74,91.86,423.61,161.38,2.98,1.64,6.37,2.62,10.08,2.89,5.99.44,12.16,2.41,17.84,5.69,7.24,4.18,13,10.11,16.23,16.7.6,1.23,1.63,2.29,2.96,3.06,12.78,7.38,43.47,28.84,52.54,68.76v.71c0,1.32-.64,2.61-1.8,3.24-1.55.83-3.42.44-4.5-.92-8.12-10.19-29.99-34.93-57.71-44.59-1.72-.6-3.63-.73-5.53-.37-8.1,1.53-17.6-.4-26.05-5.27-6.49-3.75-11.9-9.01-15.24-14.83-2.69-4.67-6.45-8.35-10.88-10.64-93.91-48.52-349.73-164.79-696.2-196.42-.75-.07-1.02.45-1.11.76-.09.31-.14.9.54,1.24,45.43,22.97,137.49,72.91,243.6,149.25,128.09,92.16,238.63,194.83,328.55,305.16,2.27,2.79,5.27,4.76,8.44,5.55,7.78,1.94,15.48,7.36,21.14,14.88,5.51,7.33,8.5,15.7,8.44,23.59-.01,1.32.4,2.65,1.19,3.85,8,12.15,25.64,44.62,16.54,83.7-.37,1.58-1.76,2.68-3.38,2.68h-.01c-1.62,0-3.02-1.11-3.38-2.69-2.25-9.94-11.27-44.13-32.84-65.59-.96-.95-2.24-1.65-3.69-2.03-7.73-1.97-15.39-7.38-21-14.84-5.84-7.77-8.9-16.94-8.39-25.14.22-3.6-1-7.13-3.45-9.97-69.11-79.91-262.92-282.99-569.21-442.44-1.3-.67-2.15.22-2.38.51-.23.29-.9,1.31.05,2.41,32.58,37.73,97.48,117.46,166.05,227.44,83.76,134.34,147.28,271.8,188.78,408.56,1.23,4.06,3.71,7.58,7.18,10.2,6.34,4.79,11.3,12.7,13.6,21.71,2.38,9.32,1.72,18.89-1.82,26.24-.5,1.04-.65,2.25-.45,3.52,2.76,16.99,4.24,49.96-16.87,79.92-.71,1.02-1.85,1.58-3.02,1.58ZM317.51,169.42c2.05,0,4.02.9,5.39,2.53,94.69,112.96,177.49,237.22,246.1,369.33,56.33,108.46,90.71,198.39,109.64,254.74,1.88,5.59,1.75,11.58-.36,16.85-2.43,6.08-2.73,13.86-.82,21.33,2.03,7.93,6.32,14.85,11.79,18.97,1.81,1.37,3.22,3.27,4.07,5.51,9.18,24.07,7.51,51.71,5.53,66.83,16.68-27.15,15.27-56.02,12.78-71.32-.37-2.28-.07-4.53.88-6.49,3.04-6.31,3.58-14.63,1.48-22.83-2.03-7.93-6.32-14.84-11.77-18.96-4.31-3.26-7.41-7.66-8.95-12.74C598.49,480.87,414.25,245.62,339.44,158.97c-2.23-2.58-2.3-6.11-.19-8.78,2.09-2.64,5.63-3.4,8.61-1.84,307.06,159.85,501.38,363.48,570.68,443.61,3.31,3.83,4.96,8.64,4.66,13.55-.44,7.04,2.26,14.99,7.39,21.83,4.94,6.57,11.58,11.31,18.23,13,2.32.59,4.4,1.74,5.99,3.33,18.8,18.7,28.32,45.68,32.52,61.3,5.34-34.18-9.96-62.2-17.15-73.1-1.34-2.03-2.03-4.32-2.02-6.64.05-6.7-2.66-14.19-7.44-20.55-4.97-6.62-11.66-11.37-18.35-13.03-4.27-1.06-8.11-3.57-11.11-7.25-205.96-252.72-467.6-401.07-570.54-453.11-2.63-1.33-3.9-4.24-3.09-7.08.81-2.84,3.43-4.63,6.37-4.36,347.35,31.71,603.88,148.3,698.04,196.96,5.29,2.73,9.75,7.08,12.92,12.59,2.91,5.07,7.67,9.68,13.41,12.99,7.43,4.29,15.67,6,22.62,4.69,2.76-.52,5.56-.33,8.1.56,25.09,8.74,45.44,29.11,55.88,41.25-10.2-34.08-37.01-52.74-48.55-59.39-2.19-1.27-3.91-3.06-4.95-5.19-2.8-5.71-7.86-10.88-14.25-14.57-5.03-2.9-10.46-4.64-15.71-5.03-4.44-.33-8.52-1.51-12.13-3.5C791.27,142.04,489.53,103.05,373.17,93.68c-3.82-.31-6.93-2.78-8.09-6.45-1.13-3.6.17-7.51,3.01-9.99,23.65-20.59,55.55-34.8,78.19-43.11,4.73-1.73,9.62-2.02,14.16-.82,2.94.78,6.18.93,9.36.44,2.68-.41,6.78-2.46,11.23-5.62,2.05-1.45,4.43-2.4,6.87-2.73,36.01-4.94,70.13,12.29,84.92,21.21C545.86,1.34,496.65,4.17,481.81,6.21c-2.27.31-4.65.15-7.07-.49-2.94-.77-6.17-.93-9.33-.44-4.88.75-9.27,2.93-12.35,6.12-3.25,3.36-6.93,5.65-10.93,6.8-50.97,14.62-86.14,44.45-98.9,56.59-4.16,3.96-9.16,6.66-14.47,7.82-8.98,1.95-17.64,11.78-19.7,22.38-3.1,15.92-15.49,28.77-22.37,34.59-1.62,1.37-3.44,2.45-5.39,3.29-9.13,3.94-13.12,10.67-14.89,17.49-2.08,8.01.39,17.94,6.75,27.25,10.66,15.58,29.67,111.21,22.4,154.82-8.93,53.59-14.13,123.65-15.52,143.84-.44,6.37-5.75,11.33-12.1,11.2-13.04-.17-39.45-7.31-91.19-40.35-74.72-47.71-147.02-52.99-158.97-53.55-17.03,44.15-17.04,90.44-.04,137.66,72.48-10.71,142.85,2.54,199.49,13.21,51.71,9.74,92.56,17.43,104.42-1.12,11.54-18.06,17.89-51.2,18.36-95.85.39-37.32-3.61-80.55-10.7-115.65-2.13-10.55-5.03-23.08-8.1-36.34-10.58-45.76-22.57-97.62-15.11-116.41,2.11-5.31,3.56-9.9,4.43-14.02.57-2.69,2.57-4.77,5.23-5.44.58-.14,1.16-.21,1.73-.21ZM1176.61,395.01s0,0,0,0c0,0,0,0,0,0Z"/>
    <g>
      <path class="cls-6" d="M483.81,15.11c1.58,6.7-4.86,13.95-14.38,16.19-9.52,2.24-18.52-1.38-20.09-8.08-1.58-6.7,4.86-13.95,14.38-16.19,9.52-2.24,18.52,1.38,20.09,8.08Z"/>
      <ellipse class="cls-6" cx="342.33" cy="102.62" rx="19.21" ry="26.85" transform="translate(202.58 431.54) rotate(-83.67)"/>
      <ellipse class="cls-6" cx="288.68" cy="169.12" rx="21.09" ry="25.46" transform="translate(-12.76 23.96) rotate(-4.65)"/>
      <ellipse class="cls-6" cx="1097.52" cy="325.73" rx="17.29" ry="26.33" transform="translate(266.67 1113.35) rotate(-60)"/>
      <ellipse class="cls-6" cx="945.74" cy="615.75" rx="17.29" ry="26.33" transform="translate(-176.99 730) rotate(-38.88)"/>
      <path class="cls-6" d="M701.89,855.18c-9.22,2.47-19.81-7.15-23.66-21.5-3.85-14.35.51-27.98,9.73-30.45,9.22-2.47,19.81,7.15,23.66,21.5,3.84,14.35-.51,27.98-9.73,30.45Z"/>
    </g>
    <g>
      <path class="cls-3" d="M283.89,189.19c-.62.08-.72.94-.13,1.16,2.13.79,4.39,1.13,6.72.94,10.14-.83,17.56-11.42,16.56-23.66-.63-7.73-4.46-14.27-9.75-17.83-.54-.36-1.19.28-.84.82,2.88,4.44,8.31,15.06,3.28,26.02-4.51,9.82-12.01,12.06-15.84,12.55Z"/>
      <path class="cls-3" d="M466.73,8.7c-.42-.07-.4-.68.02-.73,7.51-.85,14.11,2.24,15.35,7.54,1.26,5.34-3.35,11.1-10.56,13.66-.4.14-.69-.4-.34-.64,3.06-2.19,8.22-6.77,6.73-12.01-1.57-5.51-7.63-7.26-11.21-7.81Z"/>
      <path class="cls-3" d="M348.78,87.23c-.57-.35-.17-1.23.47-1.04,11.43,3.29,19.15,11.75,17.77,20.19-1.39,8.51-11.55,14.11-23.56,13.49-.67-.03-.76-.99-.11-1.14,5.77-1.34,16.02-4.89,17.01-13.41,1.04-8.95-6.72-15.14-11.59-18.1Z"/>
      <path class="cls-3" d="M1108.96,315.91c-.38-.46.21-1.09.7-.74,8.7,6.12,12.75,15.53,9.12,22.27-3.66,6.79-13.89,8.55-23.87,4.52-.56-.22-.36-1.06.24-1,5.27.56,14.98.55,18.3-6.36,3.5-7.26-1.26-14.76-4.5-18.69Z"/>
      <path class="cls-3" d="M959.95,610.46c-.17-.57.62-.92.94-.41,5.65,9.02,5.74,19.26-.22,24.06-6.01,4.84-16.12,2.5-23.75-5.08-.43-.42.08-1.11.61-.83,4.64,2.55,13.6,6.31,19.34,1.23,6.04-5.34,4.56-14.1,3.09-18.97Z"/>
      <path class="cls-3" d="M710.06,830.58c.06-.6.93-.61,1.02-.02,1.74,10.49-2.11,19.99-9.46,22.13-7.41,2.16-15.84-3.89-19.97-13.83-.23-.55.51-1,.88-.53,3.3,4.14,10.12,11.05,17.38,8.58,7.63-2.6,9.64-11.26,10.15-16.32Z"/>
    </g>
    <g>
      <path class="cls-2" d="M626.32,138.9c44.34,8.8,177.55,37.98,292.02,91.05,1.29.6.56,2.56-.81,2.16-43.7-12.61-184.13-53.64-291.81-90.99-1.36-.47-.81-2.51.6-2.23Z"/>
      <path class="cls-2" d="M539.72,241.89c38.36,23.91,152.64,98.32,240.94,188.46,1,1.02-.38,2.59-1.52,1.74-36.42-27.25-153.26-115.3-240.77-188.32-1.11-.92.13-2.63,1.35-1.87Z"/>
      <path class="cls-2" d="M451.66,315.39c26.81,36.39,105.53,147.75,154.29,264.12.55,1.32-1.31,2.27-2.06,1.05-23.78-38.78-99.83-163.76-154.18-263.93-.69-1.27,1.09-2.4,1.95-1.24Z"/>
      <path class="cls-2" d="M323.46,347.08c5.11,30.67,18.01,120.04,2.62,160.05-.43,1.12-2,1.23-2.57.17-4-7.46-13.42-38.55-2.87-160.1.14-1.66,2.54-1.77,2.81-.12Z"/>
      <path class="cls-2" d="M68.14,420.95c16.1,1.76,65.11,10.49,116.87,53.36,1.77,1.47.46,4.34-1.81,3.94-21.89-3.9-83.84-17.73-116.93-53.54-1.41-1.53-.2-3.99,1.87-3.76Z"/>
      <path class="cls-2" d="M376.65,66.44c8.94-5.94,32.37-20.74,55.78-29.3.73-.27.48-1.36-.29-1.27-10.63,1.2-36.22,6.47-56.33,29.58-.51.58.21,1.42.85.99Z"/>
    </g>
    <g>
      <path class="cls-1" d="M374.28,101.37c.03,3.32-.47,8.87-3.66,13.05-.78,1.02-.15,2.49,1.13,2.59,20.09,1.56,126.16,10.63,233.95,35.77.71.17,1.02-.87.33-1.1-30.2-10.31-122.44-39.67-228.93-52.81-1.5-.18-2.82.99-2.81,2.5Z"/>
      <path class="cls-1" d="M1075.54,305.82c-2.34,1.44-5.44,4.12-6.39,8.53-.25,1.15-1.49,1.77-2.52,1.22-12.48-6.59-75.09-39.22-136.89-63.06-.8-.31-.41-1.5.42-1.28,26.11,7.05,89.06,25.35,145.25,51.79,1.14.54,1.22,2.13.14,2.79Z"/>
      <path class="cls-1" d="M312.79,107.19c1.12,3.92,4.51,11.73,14.2,15.23,1.03.37,1.32,1.68.5,2.41-3.91,3.51-12.8,12.37-17.78,24.49-.34.83-1.43.99-2,.29-2.02-2.49-6.72-6.95-15.29-8.55-1.01-.19-1.37-1.47-.61-2.16,4.73-4.3,16.24-16.08,19.95-31.68.12-.53.86-.55,1.01-.03Z"/>
      <path class="cls-1" d="M510.9,238.6c-27.47-17.26-98.56-61.11-161.83-93.34-1.25-.64-1.78-2.14-1.2-3.42,1.04-2.29,2.14-6.33.78-11.81-.21-.87.71-1.57,1.49-1.14,14.25,7.93,94.99,53.68,161.81,108.24.88.72-.09,2.07-1.05,1.47Z"/>
      <path class="cls-1" d="M332.76,161.69c-.79,2.41-2.6,5.81-6.66,7.4-1.11.44-1.45,1.85-.66,2.75,9.64,10.97,55.68,64.11,100.33,128.63.66.96,2.13.07,1.57-.95-15.98-29.06-52.98-93.16-92.09-138.33-.74-.86-2.14-.58-2.49.5Z"/>
      <path class="cls-1" d="M929.88,588.71c-1.87.47-4.74,1.59-6,4.21-.32.66-1.19.82-1.67.26-9.22-10.63-72.2-82.65-134.69-140.26-.58-.53.17-1.41.79-.93,25.56,20.06,88.42,71.76,142.11,135,.51.6.22,1.53-.54,1.72Z"/>
      <path class="cls-1" d="M603.81,603.75c12.62,28,50.9,114.86,76.78,194.15.33,1,1.46,1.52,2.41,1.06,1.71-.82,4.56-1.65,8.02-.57.85.27,1.65-.51,1.37-1.35-5.11-15.52-37.09-109.68-87.49-193.85-.39-.66-1.4-.14-1.08.56Z"/>
      <path class="cls-1" d="M282.35,196.67c3.36,1.3,9.07,2.43,15.93-.52,1.15-.5,2.45.28,2.56,1.53,1.13,13.35,5.75,74.23.98,125.74-.09,1-1.57.97-1.62-.03-1.11-23.36-5.21-78.71-19.92-124.79-.4-1.27.83-2.41,2.07-1.93Z"/>
      <path class="cls-1" d="M296.43,367.87c-3.24,18.22-11.49,69.48-10.66,119.48.1,6.19-1.59,18.45-17.83,15.36-.9-.17-1.34,1.05-.52,1.47,11.52,5.89,36.48,15.6,34.68-12.16-2.18-33.64-4.36-87.95-4.37-124.03,0-.81-1.17-.91-1.31-.12Z"/>
      <path class="cls-1" d="M9.28,463.14c-.38,12.31.35,38.01,9.92,68.4.86,2.74,3.58,4.46,6.42,4.07,17.53-2.38,80.95-8.72,163.48,9.9,97.5,22,118,14.5,126,8.5,5.42-4.06,8.77-15,10.37-21.64.24-1.01-1.1-1.61-1.68-.75-3.3,4.86-9.26,12.12-16.69,14.38-11.5,3.5-60.33,3.42-114.5-12.5-74.43-21.88-114.74-62.15-175.25-76.52-4.04-.96-7.95,2-8.08,6.15Z"/>
      <path class="cls-1" d="M345.18,78.29c2.17-.21,5.71-.15,9.7,1.51.71.29,1.52.04,1.92-.61,4.19-6.72,27.98-40.67,87.07-52.59.64-.13,1.08-.73.97-1.38-.2-1.16-.34-3.08.3-5.13.16-.51-.28-.99-.8-.85-8.71,2.47-60.79,18.44-99.78,57.76-.5.51-.1,1.37.61,1.3Z"/>
    </g>
    <g>
      <path class="cls-11" d="M485.29,8.43c8.22-1.01,48.57-4.18,76.76,26.51.28.3-.11.76-.45.53-8.61-5.88-38.38-23.87-73.08-18.24-.85.14-1.65-.44-1.75-1.29-.17-1.46-.68-3.76-2.14-6.09-.36-.58-.03-1.33.65-1.42Z"/>
      <path class="cls-11" d="M1125.98,332.21c6.01,3.16,30.27,17.25,42.52,44.24.15.33-.3.61-.52.32-4.96-6.57-20.93-25.9-43.84-35.62-.79-.34-1.18-1.24-.85-2.03.58-1.37,1.34-3.6,1.38-6.1.01-.68.71-1.12,1.31-.8Z"/>
      <path class="cls-11" d="M969.03,634.02c3.44,4.75,17.49,26.01,17.86,56.53,0,.57-.81.68-.96.13-2.53-9.84-10.29-36.16-23.76-49.64-.49-.49-.41-1.31.2-1.66,1.46-.83,3.86-2.51,5.37-5.28.27-.49.95-.54,1.28-.09Z"/>
      <path class="cls-11" d="M709.51,854.35c1.22,5.4,6.2,31.73-5.41,57.53-.16.35-.7.19-.62-.19,1.52-7.64,4.8-29.72-2.01-52.98-.18-.61.18-1.26.81-1.4,1.49-.33,4.14-1.18,6.31-3.25.31-.3.84-.14.93.28Z"/>
    </g>
  </g>
</svg>