<?xml version="1.0" encoding="UTF-8"?>
<svg id="_Ñëîé_1" data-name="Ñëîé 1" xmlns="http://www.w3.org/2000/svg" viewBox="0 0 1181.49 934.88">
  <defs>
    <style>
      .cls-1 {
        fill: #244359;
      }

      .cls-1, .cls-2, .cls-3, .cls-4, .cls-5, .cls-6, .cls-7, .cls-8, .cls-9, .cls-10, .cls-11 {
        stroke-width: 0px;
      }

      .cls-2 {
        fill: #6c95b3;
      }

      .cls-3 {
        fill: #8fb3cc;
      }

      .cls-4 {
        fill: #2e4e66;
      }

      .cls-5 {
        fill: #406680;
      }

      .cls-6 {
        fill: #5c8099;
      }

      .cls-7 {
        fill: #1b374d;
      }

      .cls-8 {
        fill: #0f2433;
      }

      .cls-9 {
        fill: #1f3a4d;
      }

      .cls-10 {
        fill: #244259;
      }

      .cls-11 {
        fill: #8fb2cc;
      }
    </style>
  </defs>
  <g>
    <g>
      <path class="cls-8" d="M114.42,320.06s30.52-2.59,72.66,5.11c1.34.24,1.92,1.85,1.04,2.89-5.13,6.14-19.86,23.15-35.91,36.12-.88.71-.28,2.13.84,1.98,13.33-1.69,56.35-7.12,73.88-9.01,1.91-.21,3.16,1.93,2.06,3.5-7.99,11.42-32.67,44.67-61.68,63.97-1.45.97-.95,3.21.78,3.43,10.15,1.34,33.43,3.93,49.6,1.91,1.76-.22,3.09,1.56,2.37,3.19-4.11,9.26-15.39,33.34-28.49,49.9-.74.94-.05,2.3,1.15,2.26,4.69-.15,14-.93,21.56-4.65,1.13-.56,2.35.57,1.84,1.73-5.07,11.5-21.82,47.09-44.33,70.28-1.4,1.44-.29,3.85,1.72,3.73,10.7-.65,34.5-2.86,56.58-10.23,2.73-.91,5.72.13,7.26,2.55,4.09,6.41,10.73,20.16,8.65,39.65,0,0,199.61-256.85,574.75-457.12,0,0,4.04-1.4,3.09-7.08-.95-5.68-6.37-4.36-6.37-4.36,0,0-374.5,19.27-703.04,200.22Z"/>
      <path class="cls-10" d="M251.3,554.84c.38,1.29,2.04,1.65,2.92.63,22.63-26.48,65.42-76.54,128.7-134.88,85.56-78.89,220.52-190.03,412.2-287.01,1.02-.52.59-2.07-.56-1.95-35.86,3.51-110.17,15.26-203.81,34.35-77.75,15.85-153.43,38.05-224.93,62.03-74.25,24.9-139.77,51.27-208.07,82.67-1.14.53-.82,2.25.44,2.31,9.09.42,19.24.33,30.14,2.26,3.25.57,6.26,2.28,8.13,4.99,3.07,4.44,2.66,10.29-.65,14.25-2.81,3.36-7.9,9.29-14.34,16.03-.73.77-.1,2.03.95,1.9,16.01-1.99,33.66-4.13,43.45-5.19.44-.05.89-.07,1.33-.07,4.93,0,9.37,2.94,11.29,7.58,1.63,3.94.96,8.46-1.49,11.95-7.4,10.54-24.09,32.81-45.14,51.5-.85.75-.37,2.14.76,2.21,3.7.21,7.5.34,11.21.34,4.84,0,9.08-.22,12.62-.67.51-.06,1.03-.1,1.54-.1,4.73,0,9.04,2.69,11.12,7.08,1.56,3.3,1.45,7.14-.04,10.47-2.93,6.59-8.92,19.39-16.53,32.27-.26.44.11.96.61.88.58-.09,1.16-.14,1.74-.14,3.85,0,7.4,1.93,9.51,5.16,2.09,3.21,2.42,7.23.86,10.75-4.75,10.77-15.8,34-31.13,55.01-.84,1.15.13,2.74,1.54,2.53,9.54-1.46,20.52-3.72,30.99-7.19.7-.23,1.4-.46,2.12-.6,6.8-1.35,13.42,1.56,17,7.17,2.29,3.58,3.71,5.28,5.53,11.48Z"/>
      <g>
        <ellipse class="cls-4" cx="386.92" cy="332.54" rx="176.32" ry="14.3" transform="translate(-114.43 238.01) rotate(-30)"/>
        <path class="cls-4" d="M245.41,347.32c1.92,4.09,44.4-11.79,94.87-35.47,50.48-23.69,89.84-46.21,87.92-50.3-1.92-4.09-44.4,11.79-94.87,35.47s-89.84,46.21-87.92,50.3Z"/>
      </g>
      <g>
        <path class="cls-7" d="M780.37,136.16c-20.4,2.97-130.08,19.29-217.56,39.86-1.75.41-1.86,2.84-.17,3.43,37.27,13.08,42.78,37.98,19.46,73.62-.73,1.12.59,2.43,1.69,1.67,21.07-14.51,101.2-68.49,196.9-117.53.57-.29.3-1.15-.33-1.06Z"/>
        <path class="cls-7" d="M230.05,458.93c12.19-9.98,49.81-37.28,109.78-49.73,2.18-.45,3.78,2.03,2.46,3.83-12.53,17.01-57.21,73.78-123.63,115.34-1.39.87-2.96-.82-2-2.14,10.41-14.33,32.72-49.15,13.67-61.34-2.09-1.34-2.21-4.38-.28-5.96Z"/>
        <path class="cls-7" d="M183.59,305.51c16.46-6.18,69.38-25.04,122.15-32.94,2.21-.33,3.44,2.47,1.71,3.87-14.92,12.1-56.62,43.93-109.04,67.36-.92.41-1.73-.75-1.02-1.47,5.2-5.22,13.22-15.13,9.74-23.83-3.46-8.65-15.89-10.59-23.22-10.97-1.13-.06-1.37-1.63-.31-2.03Z"/>
      </g>
    </g>
    <g>
      <path class="cls-8" d="M727.63,36.39s7.03,7.34,8.48,15.42c.16.9-.32,1.79-1.17,2.15-3.52,1.48-13.65,5.12-28.29,5.37-.77.01-1.25.82-.9,1.5.88,1.69,2.57,4.36,4.85,5.62.5.27.47.98-.06,1.19-4.45,1.73-18.51,6.38-38.81,5.18-.72-.04-1.1.83-.57,1.31,1.77,1.64,5.05,4.22,9.03,5.37.72.21.87,1.16.26,1.59-4.58,3.24-18.68,12.35-37.73,16.45-.73.16-.8,1.17-.11,1.44,2.49.98,6.7,2.36,10.77,2.36,0,0-23,11.33-45.33,17,0,0,94.33-19.33,199.67-28,0,0,3.42-.17,5-3.92,1.58-3.75-1.58-6.25-2.75-7.25-1.17-1-34.08-27.97-82.33-42.79Z"/>
      <path class="cls-10" d="M737.37,43.49c-.33-.4.08-.99.57-.82,8.08,2.89,39.21,15.69,68.72,38.68,0,0,2.13,1.62,1.41,3.44-.69,1.72-2.81,1.62-5.19,1.81-2.34.18-73.01,4.98-155.43,21.01-.39.08-.57-.47-.19-.62,4.22-1.67,11.37-3.69,16.61-6.85.55-.33.3-1.18-.34-1.17-2.21.06-5.66.01-8.97-.6-.42-.08-.45-.67-.03-.78,5.39-1.44,23.04-6.69,38.23-17.44.58-.41.33-1.34-.39-1.39-2.02-.15-5.21-.59-8.56-1.79-.4-.14-.33-.74.09-.78,5.34-.52,22.28-2.45,33.69-7.07.72-.29.8-1.28.13-1.69-1.24-.76-2.94-2-4.3-3.69-.4-.49-.05-1.23.58-1.26,3.73-.17,14.22-1.14,26.12-6.47.95-.42,1.53-1.4,1.47-2.44-.13-2.16-.89-6.03-4.21-10.08Z"/>
      <g>
        <path class="cls-4" d="M694.92,80.43c-.06,1.18,13.6,2.85,30.51,3.75,16.91.89,30.67.66,30.74-.52.06-1.18-13.6-2.85-30.51-3.75-16.91-.89-30.67-.66-30.74.52Z"/>
        <path class="cls-4" d="M721.11,68.77c-.19,1.16,10.21,3.81,23.22,5.91,13.01,2.1,23.71,2.86,23.9,1.69.19-1.16-10.21-3.81-23.22-5.91-13.01-2.1-23.71-2.86-23.9-1.69Z"/>
      </g>
      <g>
        <path class="cls-7" d="M777.96,66.01c-.13,4.04-1.36,15.16-22.27,22.6-.39.14-.26.72.15.68,7.99-.84,28.76-2.36,47.78-4.25,1.39-.14,5.09-.84-.41-4.84-5.23-3.8-16.01-10.72-24.08-14.88-.53-.27-1.16.1-1.18.69Z"/>
        <path class="cls-7" d="M743.61,48.8c1.16,2.45,3.31,9.14-6.82,10.99-.32.06-.34.51-.02.57,3.65.79,13.45,2.66,24.17,2.67.64,0,.96-.78.51-1.23-2.51-2.49-8.84-8.34-17.4-13.38-.25-.15-.55.12-.42.38Z"/>
        <path class="cls-7" d="M667.47,96.42c1.17.92,3.25,3.29-1.6,6.01-.21.12-.1.44.14.39,5.71-1.23,25.46-5.33,44.48-7.45.51-.06.51-.79,0-.85-7.18-.91-24.78-2.45-42.9,1.34-.26.06-.34.4-.13.56Z"/>
      </g>
    </g>
    <g>
      <path class="cls-8" d="M860.88,173.88c-157.39,185.09-276.1,395.66-357,631.13,0,0,43.65-30.7,101.83-34.78,2.43-.17,4.85.48,6.82,1.9,8.6,6.16,32.24,25.87,38.9,60.05.61,3.15,3.78,5.12,6.88,4.25,22.17-6.21,101.02-30.98,142.77-79.67,1.16-1.35,3.32-1.12,4.17.44,3.93,7.2,12.43,25.82,9.61,47.92-.45,3.51,3.1,6.19,6.38,4.86,25.56-10.3,106.81-46.67,144.48-106.29.67-1.06,2.28-.86,2.63.35,1.72,5.98,4.73,20,.67,34.69-.48,1.73,1.74,2.88,2.87,1.48,14.69-18.2,49.4-56.68,90.45-71.18,1.85-.65,3.92,0,5,1.64,3.81,5.79,11.6,20.98,8.78,45.17-.21,1.84,1.94,2.97,3.33,1.75,9.82-8.59,34.43-32.47,41.03-60.99.27-1.18,1.94-1.21,2.26-.04,1.84,6.81,4.75,20.22,3.31,33.02-.27,2.43,2.72,3.79,4.33,1.95,9.9-11.39,30.99-36.29,30.99-63.52,0-52,6.52-83.62,6.52-83.62,0,0-88.52-12.88-190.02,11.12s-114.83,6.33-120.17-.83c-5.33-7.17-41.14-71.09-5.33-227.33,7.46-32.56,29.9-103.84,22.12-131.78-1.4-5.03-3.54-13.64-6.01-19.98-.71-1.82-3.78-5.5-7.62-1.7Z"/>
      <path class="cls-10" d="M659.26,821.89c.55,1.96,2.58,3.09,4.53,2.49,29.03-8.95,96.71-33.5,131.83-76.67l4.33-5.33c2.1-2.58,6.09-2.39,7.94.38l3.81,5.71c.66.99,13.05,19.94,13.71,45.61.04,1.57,1.65,2.59,3.08,1.96,32.48-14.34,99.32-48.74,130.32-100.18l5.04-8.36c2.25-3.73,7.8-3.24,9.36.82l3.5,9.11c.2.51,2.17,5.77,3.38,13.65.24,1.57,2.16,2.2,3.26,1.06,19.25-19.87,47.22-43.43,78.96-53.64l2.9-.93c2.01-.65,4.22-.04,5.62,1.53l2.02,2.27c.56.63,9.94,11.46,12.95,31.72.2,1.34,1.78,1.91,2.81,1.04,9.35-7.96,24.02-33.94,28.26-46.36,1.75-5.12,6.88-5,9.38-.25,2.55,4.85,6.43,11.55,8.32,17.52.39,1.25,2.05,1.48,2.74.37,6.73-10.84,14.06-24.08,14.06-37.81,0-29.6,4.53-61.29,6.12-71.52.29-1.84-1.05-3.54-2.91-3.69-10.36-.82-29.8-1.78-47.59-1.78-29.59,0-75.62,2.54-126.82,14.65-34.91,8.25-63.1,12.44-83.79,12.44h0c-29.97,0-40.42-8.61-46.69-17.04-1.41-1.9-13.96-19.75-19.97-62.33-6.78-47.97-2.43-106.24,12.92-173.2,1.57-6.84,3.7-15.05,6.18-24.57,8.57-32.93,21.51-82.69,16.06-102.3-.28-.99-.58-2.12-.91-3.34-.28-1.05-.59-2.19-.91-3.37-.41-1.49-2.34-1.88-3.3-.68-72.75,90.79-138.59,184.2-195.35,284.62-53.88,95.34-100.38,198-140.76,303.75-.54,1.41.91,2.75,2.28,2.11,19.93-9.3,49.15-19.63,82.96-21.32h0c1.97-.1,3.92.39,5.61,1.39h0c1.51.9,33.43,20.3,44.77,60.47Z"/>
      <g>
        <ellipse class="cls-4" cx="730.37" cy="660.67" rx="139.99" ry="14.31" transform="translate(-253.63 619.87) rotate(-39.76)"/>
        <ellipse class="cls-4" cx="834.29" cy="657.14" rx="75.33" ry="10.41" transform="translate(-60.87 1228.61) rotate(-70.78)"/>
      </g>
      <g>
        <path class="cls-7" d="M858.32,201.12c-14.62,18.6-104.03,133.59-165.41,241.42-1.03,1.8.39,4.02,2.46,3.84,18.51-1.6,84.54-.7,129.93,84.89,1.12,2.11,4.32.97,3.84-1.37-5.89-28.1-13.9-84.38-2.75-149.89,16-94,19.33-84.67,26-111.33,6.24-24.95,10.9-50.04,8.58-66.82-.18-1.31-1.82-1.78-2.64-.74Z"/>
        <path class="cls-7" d="M1152.58,557.89c.16-.83-.43-1.61-1.27-1.67-11.25-.8-80.61-5.04-137.18,7.78-57.58,13.05-84.94,17.41-114.32,17.94-1.38.02-1.72,1.93-.43,2.41,17.77,6.69,72.85,25.41,136,26.64,72.97,1.42,94.3,23.5,101.87,37.72.59,1.11,2.12,1.25,2.92.28,2.86-3.51,8.12-11.35,7.88-21.33-.33-13.4-.33-44.09,4.53-69.79Z"/>
        <path class="cls-7" d="M573.7,670.89c-7.79,18.8-25.98,62.89-37.97,93.17-.74,1.86,1.24,3.63,3.01,2.69,6.21-3.28,18.17-8.4,37.68-12.26,5.4-1.07,10.13-4.25,13.19-8.83,29.27-43.81,119.74-124.9,189.56-182.03,2.49-2.03.17-5.97-2.82-4.8-37.98,14.94-132.84,54.56-192.93,99.58-4.3,3.22-7.67,7.51-9.73,12.47Z"/>
        <path class="cls-7" d="M987.08,688.63c.23,1.17-1.27,1.84-1.99.89-3.88-5.1-11.19-13.21-18.08-12.52-9.29.93-16.54,23.45-36.38,39.48-1.74,1.4-4.32.05-4.18-2.18,1-15.18.58-58.13-30.48-97.97-1.06-1.36.12-3.32,1.81-2.99,17.79,3.49,78.48,19.39,89.3,75.28Z"/>
      </g>
    </g>
    <g>
      <path class="cls-8" d="M261.88,598.35s26.23-2.48,52.83,9.39c2.35,1.05,3.41,3.77,2.35,6.11-5.1,11.2-17.78,44.89-11.32,91.33.29,2.12,3.2,2.5,4.02.52,3.23-7.82,9.54-19.77,19.87-26.67,1.63-1.09,3.8.2,3.63,2.15-1.34,14.91-4.05,64.08,13.24,105.09,1.19,2.83,5.09,3.15,6.73.54,4.24-6.74,12.64-17.21,26.92-24.15,3.77-1.83,8.3-.86,11.05,2.31,6.85,7.91,18.45,24.78,16.89,47.13-.27,3.94,4.01,6.52,7.37,4.47,12.52-7.65,37.37-20.23,70.38-24.14,0,0,85.55-331.42,354.65-634.45,1.07-1.2,2.34-3.53-.22-6.44-2.33-2.64-4.54-1.86-7.54-.53-3,1.33-301.67,141.67-570.83,447.33Z"/>
      <path class="cls-10" d="M422.95,800.98c13.36-6.68,32.11-14,54.98-17.56,6.24-21.97,29.14-97.65,75.2-198.72,47.81-104.91,130.63-258.52,258.03-408.24,1.11-1.3-.38-3.18-1.89-2.38-31.48,16.62-87.82,48.23-157.68,95.51-62.56,42.34-123.65,88.87-181.58,138.28-65.68,56.02-127.47,115.95-183.95,178.39-1.07,1.19-.38,3.08,1.2,3.32,10.76,1.6,23.6,4.86,36.3,11.31l5.68,2.88c1.97,1,2.72,3.45,1.63,5.38l-3.12,5.56c-.15.28-12.53,23.17-13.71,59.51-.06,1.93,2.24,2.93,3.65,1.61,3.39-3.19,7.26-6.01,11.66-8.14l10.08-4.87c2.82-1.36,6.03.95,5.62,4.06l-1.44,11.1c-.07.54-5.75,46.61,6.64,89.05.65,2.21,3.43,2.88,5.05,1.25,6.56-6.58,15.57-13.23,27.62-17.64h0c3.41-1.25,7.23-.55,9.97,1.82h0c1.07.92,20.64,18.18,24.62,45.67.37,2.56,3.1,4.02,5.42,2.87Z"/>
      <g>
        <ellipse class="cls-4" cx="453.38" cy="535.07" rx="152" ry="14.31" transform="translate(-247.69 516.5) rotate(-48.21)"/>
        <path class="cls-4" d="M404.91,740.44c7.1,3.48,36.31-41.48,65.26-100.43,28.95-58.95,46.66-109.56,39.56-113.05-7.1-3.48-36.31,41.48-65.26,100.43-28.95,58.95-46.66,109.56-39.56,113.05Z"/>
      </g>
      <g>
        <path class="cls-7" d="M607.1,312.11c15.52,2.47,52.61,15.18,39.42,80.57-.33,1.63,1.85,2.48,2.7,1.06,15.92-26.81,70.09-114.77,147.29-205.54,1.15-1.35-.45-3.28-1.99-2.4-26.54,15.17-115.32,66.95-188.56,121.7-1.82,1.36-1.11,4.25,1.14,4.61Z"/>
        <path class="cls-7" d="M306.18,582.87c6.71,1.42,19.77,4.73,30.64,10.73,3.54,1.95,5.44,5.94,4.83,9.93-.84,5.44-1.8,13.86-1.51,22.67.06,1.92,2.63,2.52,3.5.8,10.02-19.6,44.25-83.42,90.83-136.18,1.37-1.56-.4-3.86-2.25-2.91-21.53,11.07-78.55,42.76-127.25,90.85-1.38,1.36-.68,3.71,1.21,4.11Z"/>
        <path class="cls-7" d="M477.08,679.19c-8.95,15.55-31,51.69-57.76,79.78-1.73,1.81-2.09,4.52-.95,6.74,2.05,3.98,5.11,10.48,6.39,16.12.51,2.23,2.97,3.41,5.05,2.45,5.55-2.56,15.7-6.59,27.02-7.91,2.62-.3,4.68-2.39,4.92-5.01,1.2-13.15,5.51-52.21,17.03-91.43.31-1.07-1.15-1.71-1.71-.74Z"/>
      </g>
    </g>
  </g>
  <g>
    <path class="cls-5" d="M2.44,394.46c8.91-39.23,39.45-60.28,51.35-67.15,1.69-.97,3.1-2.38,3.96-4.13,2.9-5.9,8.18-11.56,15.24-15.63,5.53-3.19,11.35-4.96,16.77-5.36,3.89-.29,7.69-1.31,11.1-3.2C392.77,137.77,701.18,99.8,808.12,91.18c5.97-.48,8.4-7.89,3.89-11.83-22.94-20.08-53.85-34.14-77.67-42.87-4.06-1.49-8.48-1.85-12.67-.75-3.19.84-6.73,1.05-10.38.49-4.13-.64-9.33-3.95-12.3-6.05-1.71-1.21-3.69-2.01-5.77-2.3-39.59-5.43-76.71,16.4-87.92,23.79-.93.61-2.07-.42-1.56-1.41C631.08-2.07,686.14,1.83,700.02,3.73c2.04.28,4.1.09,6.09-.43,3.18-.84,6.71-1.05,10.35-.49,5.62.87,10.45,3.41,13.77,6.86,2.73,2.83,6.04,5.05,9.82,6.13,50.86,14.59,85.88,43.81,99.93,57.19,3.71,3.53,8.27,6.1,13.27,7.18,10.25,2.23,19.44,13.16,21.62,24.35,3.5,18,24.5,35.5,24.5,35.5,26,13,20.58,34.99,11,49-9.75,14.25-29.33,109-22,153,8.89,53.37,14.05,122.29,15.55,144.08.34,5.03,4.54,8.94,9.57,8.88,11.84-.15,37.54-6.53,89.88-39.96,83-53,162-54,162-54,18.19,45.97,18.25,93.63,0,143-143-22-281.67,51.33-307.67,10.67-26-40.67-21.33-147.33-8-213.33,9.25-45.77,32.67-127.83,23.33-151.33-2.24-5.64-3.69-10.36-4.55-14.43-.79-3.75-5.52-4.97-7.99-2.03-217.71,259.72-319.33,516.18-355.29,623.25-1.65,4.93-1.62,10.3.31,15.12,2.55,6.36,3.06,14.53.92,22.88-2.26,8.83-7.01,16.05-12.7,20.35-1.48,1.12-2.58,2.67-3.24,4.4-10.38,27.2-6.56,59.27-4.52,71.44.21,1.25-1.42,1.9-2.15.86-20.77-29.49-19.04-62.14-16.45-78.08.28-1.7.08-3.45-.66-5.01-3.16-6.57-3.98-15.44-1.65-24.54,2.25-8.82,7-16.04,12.69-20.34,3.83-2.89,6.67-6.88,8.06-11.47,96.45-317.78,288.15-558.44,354.33-635.09,3.17-3.67-1.07-9.01-5.38-6.77-305.79,159.19-499.13,361.15-569.94,443.02-2.81,3.25-4.32,7.46-4.05,11.76.46,7.32-2.2,15.91-7.89,23.49-5.49,7.31-12.68,12.16-19.62,13.92-1.82.46-3.51,1.35-4.84,2.68-21.76,21.64-30.89,55.2-33.52,66.8-.23,1-1.67,1.01-1.9,0-8.82-37.87,7.94-69.24,16.19-81.76,1.03-1.56,1.62-3.37,1.6-5.24-.06-7,2.61-14.98,7.94-22.07,5.53-7.35,12.77-12.22,19.74-13.96,3.87-.96,7.25-3.31,9.77-6.4,208.45-255.77,475.97-405.54,571.35-453.77,3.5-1.77,1.98-7.08-1.93-6.72-346.7,31.65-602.4,147.75-697.12,196.69-5.04,2.6-9.07,6.7-11.9,11.62-3.03,5.27-7.96,10.23-14.33,13.91-8.23,4.75-17.11,6.34-24.33,4.98-2.28-.43-4.63-.3-6.81.46-28.62,9.97-51.16,35.75-58.84,45.39-.72.9-2.16.21-1.91-.91Z"/>
    <path class="cls-9" d="M481.79,933.3c-21.11-29.96-19.63-62.93-16.87-79.92.21-1.27.05-2.48-.45-3.52-3.54-7.35-4.21-16.92-1.82-26.24,2.3-9.01,7.26-16.92,13.6-21.71,3.46-2.62,5.95-6.14,7.18-10.2,41.51-136.77,105.02-274.23,188.78-408.56,68.57-109.98,133.47-189.7,166.05-227.44.95-1.1.28-2.12.05-2.41-.23-.29-1.08-1.19-2.38-.51-306.29,159.45-500.1,362.53-569.21,442.44-2.45,2.83-3.67,6.37-3.45,9.97.51,8.21-2.55,17.37-8.39,25.14-5.61,7.46-13.26,12.87-21,14.84-1.46.37-2.74,1.07-3.69,2.03-21.57,21.46-30.6,55.65-32.84,65.59-.36,1.58-1.76,2.69-3.38,2.69h-.01c-1.62,0-3.01-1.1-3.38-2.68-9.1-39.08,8.53-71.55,16.54-83.7.79-1.2,1.2-2.53,1.19-3.85-.06-7.89,2.94-16.27,8.44-23.59,5.65-7.52,13.36-12.94,21.14-14.88,3.17-.79,6.17-2.76,8.44-5.55,89.92-110.33,200.46-213.01,328.55-305.16,106.11-76.34,198.17-126.28,243.6-149.25.68-.34.63-.92.54-1.24-.09-.31-.36-.84-1.11-.76-346.47,31.63-602.3,147.9-696.2,196.42-4.43,2.29-8.19,5.97-10.88,10.64-3.34,5.82-8.76,11.08-15.24,14.83-8.45,4.88-17.94,6.8-26.05,5.27-1.9-.36-3.81-.23-5.53.37-27.72,9.66-49.59,34.4-57.71,44.59-1.08,1.36-2.96,1.75-4.5.92-1.16-.62-1.8-1.92-1.8-3.24v-.71c9.06-39.92,39.76-61.38,52.54-68.76,1.33-.77,2.36-1.83,2.96-3.06,3.23-6.59,9-12.52,16.23-16.7,5.68-3.28,11.85-5.24,17.84-5.69,3.71-.27,7.1-1.25,10.08-2.89,125.87-69.52,268.39-123.81,423.61-161.38,128.31-31.05,233.42-42.61,284.65-46.74,1.76-.14,3.15-1.23,3.7-2.91.54-1.66-.04-3.49-1.35-4.64-23.09-20.17-54.49-34.14-76.79-42.32-3.76-1.38-7.62-1.62-11.17-.68-3.6.95-7.54,1.14-11.4.54-4.45-.69-9.72-3.91-13.36-6.48-1.4-.99-3.01-1.63-4.66-1.86-38.73-5.31-75.48,16.35-86.06,23.3-1.42.93-3.33.87-4.57-.29-1.19-1.11-1.48-2.82-.72-4.27,11.96-22.89,30.37-37.98,54.72-44.84,19.49-5.49,37.34-3.92,44.11-3,1.62.22,3.34.1,5.11-.37,3.6-.95,7.54-1.14,11.37-.54,5.95.92,11.35,3.62,15.19,7.59,2.63,2.72,5.56,4.56,8.71,5.47,52.03,14.92,87.94,45.38,100.97,57.78,3.49,3.33,7.67,5.59,12.08,6.55,10.97,2.38,21.09,13.7,23.54,26.31,2.57,13.21,15.44,26.46,21.04,31.71,1.36,1.27,2.87,2.37,4.49,3.28,9.2,5.15,14.93,11.89,17.05,20.07,3.34,12.88-3.25,25.16-7.47,31.33-8.92,13.03-28.92,107.25-21.6,151.18,8.97,53.81,14.19,124.07,15.57,144.32.25,3.72,3.39,6.61,7.05,6.55,10.14-.13,35.14-5.45,88.57-39.56,82.65-52.77,162.52-54.38,163.31-54.39,1.05-.03,1.97.62,2.36,1.58,18.37,46.41,18.38,95.12.02,144.79-.41,1.11-1.55,1.78-2.73,1.6-72.35-11.13-143.04,2.18-199.84,12.88-55.66,10.48-95.88,18.06-109.56-3.34-27.16-42.48-21.23-151.4-8.34-215.18,2.15-10.62,5.05-23.18,8.13-36.48,9.9-42.81,22.22-96.1,15.34-113.44-2.21-5.58-3.74-10.43-4.67-14.84-.26-1.21-1.25-1.55-1.55-1.62-.38-.09-1.33-.21-2.08.68-219.54,261.9-321.28,522.54-354.83,622.44-1.5,4.47-1.41,9.23.26,13.4,2.86,7.15,3.23,15.82,1.03,24.43-2.3,9.01-7.27,16.93-13.62,21.72-1.06.8-1.9,1.94-2.41,3.3-10.09,26.44-6.47,57.66-4.41,70,.26,1.57-.42,3.2-1.82,3.96-.58.32-1.19.46-1.8.46-1.17,0-2.31-.56-3.02-1.58ZM865.71,169.63c2.66.66,4.66,2.75,5.23,5.44.87,4.13,2.32,8.71,4.43,14.02,7.46,18.79-4.53,70.65-15.11,116.41-3.07,13.26-5.96,25.79-8.1,36.34-7.09,35.09-11.09,78.32-10.7,115.65.47,44.65,6.81,77.79,18.36,95.85,11.86,18.55,52.71,10.85,104.42,1.12,56.64-10.67,127.01-23.92,199.49-13.21,17.01-47.22,17-93.52-.04-137.66-11.95.55-84.25,5.83-158.97,53.55-51.75,33.04-78.15,40.18-91.19,40.35-6.35.13-11.67-4.84-12.1-11.2-1.38-20.2-6.59-90.25-15.52-143.84-7.27-43.62,11.74-139.24,22.4-154.82,6.37-9.31,8.83-19.24,6.75-27.25-1.77-6.82-5.76-13.55-14.89-17.49-1.94-.84-3.77-1.92-5.39-3.29-6.88-5.81-19.27-18.67-22.37-34.59-2.06-10.6-10.71-20.43-19.7-22.38-5.31-1.15-10.31-3.86-14.47-7.82-12.76-12.15-47.94-41.98-98.9-56.59-4-1.15-7.68-3.44-10.93-6.8-3.08-3.19-7.47-5.37-12.35-6.12-3.16-.49-6.39-.34-9.33.44-2.42.64-4.79.8-7.07.49-14.84-2.04-64.05-4.86-91.03,40.39,14.79-8.92,48.92-26.14,84.92-21.21,2.45.34,4.82,1.28,6.87,2.73,4.46,3.16,8.55,5.21,11.23,5.62,3.18.49,6.41.34,9.36-.44,4.54-1.2,9.44-.91,14.16.82,22.64,8.3,54.55,22.51,78.19,43.11,2.84,2.48,4.14,6.39,3.01,9.99-1.15,3.67-4.26,6.14-8.09,6.45-116.36,9.38-418.11,48.37-706.25,207.51-3.61,2-7.69,3.17-12.13,3.5-5.25.39-10.68,2.13-15.71,5.03-6.39,3.69-11.44,8.86-14.25,14.57-1.04,2.13-2.76,3.92-4.95,5.19-11.53,6.66-38.34,25.32-48.55,59.39,10.44-12.13,30.79-32.5,55.88-41.25,2.54-.89,5.34-1.08,8.1-.56,6.95,1.31,15.19-.4,22.62-4.69,5.74-3.31,10.5-7.92,13.41-12.99,3.17-5.51,7.63-9.86,12.92-12.59,94.17-48.66,350.69-165.25,698.04-196.96,2.94-.27,5.56,1.53,6.37,4.36.81,2.84-.46,5.75-3.09,7.08-102.93,52.05-364.58,200.39-570.54,453.11-2.99,3.67-6.83,6.18-11.11,7.25-6.69,1.67-13.38,6.42-18.35,13.03-4.78,6.36-7.49,13.85-7.44,20.55.02,2.31-.68,4.61-2.02,6.64-7.18,10.9-22.49,38.92-17.15,73.1,4.21-15.62,13.73-42.6,32.52-61.3,1.59-1.58,3.66-2.73,5.99-3.33,6.65-1.69,13.3-6.43,18.23-13,5.14-6.83,7.83-14.79,7.39-21.83-.31-4.91,1.35-9.72,4.66-13.55,69.3-80.13,263.63-283.76,570.68-443.61,2.98-1.55,6.52-.79,8.61,1.84,2.11,2.67,2.04,6.2-.19,8.78-74.81,86.65-259.05,321.89-353.83,634.18-1.54,5.08-4.63,9.48-8.95,12.74-5.46,4.12-9.75,11.03-11.77,18.96-2.1,8.2-1.56,16.52,1.48,22.83.95,1.96,1.25,4.21.88,6.49-2.49,15.31-3.89,44.18,12.78,71.32-1.99-15.12-3.66-42.77,5.53-66.83.85-2.23,2.26-4.14,4.07-5.51,5.46-4.12,9.76-11.04,11.79-18.97,1.91-7.48,1.61-15.25-.82-21.33-2.11-5.27-2.24-11.25-.36-16.85,18.92-56.35,53.31-146.28,109.64-254.74,68.61-132.1,151.41-256.36,246.1-369.33,1.37-1.63,3.34-2.53,5.39-2.53.57,0,1.15.07,1.73.21ZM4.88,395.01s0,0,0,0c0,0,0,0,0,0Z"/>
    <g>
      <ellipse class="cls-6" cx="714.91" cy="19.17" rx="12.47" ry="17.71" transform="translate(532.48 710.68) rotate(-76.76)"/>
      <ellipse class="cls-6" cx="839.15" cy="102.62" rx="26.85" ry="19.21" transform="translate(-6.2 93.19) rotate(-6.33)"/>
      <ellipse class="cls-6" cx="892.81" cy="169.12" rx="25.46" ry="21.09" transform="translate(651.85 1045.27) rotate(-85.35)"/>
      <ellipse class="cls-6" cx="83.96" cy="325.73" rx="26.33" ry="17.29" transform="translate(-151.61 85.62) rotate(-30)"/>
      <ellipse class="cls-6" cx="235.75" cy="615.75" rx="26.33" ry="17.29" transform="translate(-391.58 412.79) rotate(-51.12)"/>
      <path class="cls-6" d="M479.6,855.18c9.22,2.47,19.81-7.15,23.66-21.5,3.84-14.35-.51-27.98-9.73-30.45-9.22-2.47-19.81,7.15-23.66,21.5-3.84,14.35.51,27.98,9.73,30.45Z"/>
    </g>
    <g>
      <path class="cls-3" d="M897.59,189.19c.62.08.72.94.13,1.16-2.13.79-4.39,1.13-6.72.94-10.14-.83-17.56-11.42-16.56-23.66.63-7.73,4.46-14.27,9.75-17.83.54-.36,1.19.28.84.82-2.88,4.44-8.31,15.06-3.28,26.02,4.51,9.82,12.01,12.06,15.84,12.55Z"/>
      <path class="cls-3" d="M714.75,8.7c.42-.07.4-.68-.02-.73-7.51-.85-14.11,2.24-15.35,7.54-1.26,5.34,3.35,11.1,10.56,13.66.4.14.69-.4.34-.64-3.06-2.19-8.22-6.77-6.73-12.01,1.57-5.51,7.63-7.26,11.21-7.81Z"/>
      <path class="cls-3" d="M832.7,87.23c.57-.35.17-1.23-.47-1.04-11.43,3.29-19.15,11.75-17.77,20.19,1.39,8.51,11.55,14.11,23.56,13.49.67-.03.76-.99.11-1.14-5.77-1.34-16.02-4.89-17.01-13.41-1.04-8.95,6.72-15.14,11.59-18.1Z"/>
      <path class="cls-3" d="M72.52,315.91c.38-.46-.21-1.09-.7-.74-8.7,6.12-12.75,15.53-9.12,22.27,3.66,6.79,13.89,8.55,23.87,4.52.56-.22.36-1.06-.24-1-5.27.56-14.98.55-18.3-6.36-3.5-7.26,1.26-14.76,4.5-18.69Z"/>
      <path class="cls-3" d="M221.54,610.46c.17-.57-.62-.92-.94-.41-5.65,9.02-5.74,19.26.22,24.06,6.01,4.84,16.12,2.5,23.75-5.08.43-.42-.08-1.11-.61-.83-4.64,2.55-13.6,6.31-19.34,1.23-6.04-5.34-4.56-14.1-3.09-18.97Z"/>
      <path class="cls-3" d="M471.43,830.58c-.06-.6-.93-.61-1.02-.02-1.74,10.49,2.11,19.99,9.46,22.13,7.41,2.16,15.84-3.89,19.97-13.83.23-.55-.51-1-.88-.53-3.3,4.14-10.12,11.05-17.38,8.58-7.63-2.6-9.64-11.26-10.15-16.32Z"/>
    </g>
    <g>
      <path class="cls-2" d="M555.17,138.9c-44.34,8.8-177.55,37.98-292.02,91.05-1.29.6-.56,2.56.81,2.16,43.7-12.61,184.13-53.64,291.81-90.99,1.36-.47.81-2.51-.6-2.23Z"/>
      <path class="cls-2" d="M641.76,241.89c-38.36,23.91-152.64,98.32-240.94,188.46-1,1.02.38,2.59,1.52,1.74,36.42-27.25,153.26-115.3,240.77-188.32,1.11-.92-.13-2.63-1.35-1.87Z"/>
      <path class="cls-2" d="M729.82,315.39c-26.81,36.39-105.53,147.75-154.29,264.12-.55,1.32,1.31,2.27,2.06,1.05,23.78-38.78,99.83-163.76,154.18-263.93.69-1.27-1.09-2.4-1.95-1.24Z"/>
      <path class="cls-2" d="M858.02,347.08c-5.11,30.67-18.01,120.04-2.62,160.05.43,1.12,2,1.23,2.57.17,4-7.46,13.42-38.55,2.87-160.1-.14-1.66-2.54-1.77-2.81-.12Z"/>
      <path class="cls-2" d="M1113.35,420.95c-16.1,1.76-65.11,10.49-116.87,53.36-1.77,1.47-.46,4.34,1.81,3.94,21.89-3.9,83.84-17.73,116.93-53.54,1.41-1.53.2-3.99-1.87-3.76Z"/>
      <path class="cls-2" d="M804.83,66.44c-8.94-5.94-32.37-20.74-55.78-29.3-.73-.27-.48-1.36.29-1.27,10.63,1.2,36.22,6.47,56.33,29.58.51.58-.21,1.42-.85.99Z"/>
    </g>
    <g>
      <path class="cls-1" d="M807.2,101.37c-.03,3.32.47,8.87,3.66,13.05.78,1.02.15,2.49-1.13,2.59-20.09,1.56-126.16,10.63-233.95,35.77-.71.17-1.02-.87-.33-1.1,30.2-10.31,122.44-39.67,228.93-52.81,1.5-.18,2.82.99,2.81,2.5Z"/>
      <path class="cls-1" d="M105.95,305.82c2.34,1.44,5.44,4.12,6.39,8.53.25,1.15,1.49,1.77,2.52,1.22,12.48-6.59,75.09-39.22,136.89-63.06.8-.31.41-1.5-.42-1.28-26.11,7.05-89.06,25.35-145.25,51.79-1.14.54-1.22,2.13-.14,2.79Z"/>
      <path class="cls-1" d="M868.7,107.19c-1.12,3.92-4.51,11.73-14.2,15.23-1.03.37-1.32,1.68-.5,2.41,3.91,3.51,12.8,12.37,17.78,24.49.34.83,1.43.99,2,.29,2.02-2.49,6.72-6.95,15.29-8.55,1.01-.19,1.37-1.47.61-2.16-4.73-4.3-16.24-16.08-19.95-31.68-.12-.53-.86-.55-1.01-.03Z"/>
      <path class="cls-1" d="M670.58,238.6c27.47-17.26,98.56-61.11,161.83-93.34,1.25-.64,1.78-2.14,1.2-3.42-1.04-2.29-2.14-6.33-.78-11.81.21-.87-.71-1.57-1.49-1.14-14.25,7.93-94.99,53.68-161.81,108.24-.88.72.09,2.07,1.05,1.47Z"/>
      <path class="cls-1" d="M848.73,161.69c.79,2.41,2.6,5.81,6.66,7.4,1.11.44,1.45,1.85.66,2.75-9.64,10.97-55.68,64.11-100.33,128.63-.66.96-2.13.07-1.57-.95,15.98-29.06,52.98-93.16,92.09-138.33.74-.86,2.14-.58,2.49.5Z"/>
      <path class="cls-1" d="M251.61,588.71c1.87.47,4.74,1.59,6,4.21.32.66,1.19.82,1.67.26,9.22-10.63,72.2-82.65,134.69-140.26.58-.53-.17-1.41-.79-.93-25.56,20.06-88.42,71.76-142.11,135-.51.6-.22,1.53.54,1.72Z"/>
      <path class="cls-1" d="M577.67,603.75c-12.62,28-50.9,114.86-76.78,194.15-.33,1-1.46,1.52-2.41,1.06-1.71-.82-4.56-1.65-8.02-.57-.85.27-1.65-.51-1.37-1.35,5.11-15.52,37.09-109.68,87.49-193.85.39-.66,1.4-.14,1.08.56Z"/>
      <path class="cls-1" d="M899.13,196.67c-3.36,1.3-9.07,2.43-15.93-.52-1.15-.5-2.45.28-2.56,1.53-1.13,13.35-5.75,74.23-.98,125.74.09,1,1.57.97,1.62-.03,1.11-23.36,5.21-78.71,19.92-124.79.4-1.27-.83-2.41-2.07-1.93Z"/>
      <path class="cls-1" d="M885.05,367.87c3.24,18.22,11.49,69.48,10.66,119.48-.1,6.19,1.59,18.45,17.83,15.36.9-.17,1.34,1.05.52,1.47-11.52,5.89-36.48,15.6-34.68-12.16,2.18-33.64,4.36-87.95,4.37-124.03,0-.81,1.17-.91,1.31-.12Z"/>
      <path class="cls-1" d="M1172.2,463.14c.38,12.31-.35,38.01-9.92,68.4-.86,2.74-3.58,4.46-6.42,4.07-17.53-2.38-80.95-8.72-163.48,9.9-97.5,22-118,14.5-126,8.5-5.42-4.06-8.77-15-10.37-21.64-.24-1.01,1.1-1.61,1.68-.75,3.3,4.86,9.26,12.12,16.69,14.38,11.5,3.5,60.33,3.42,114.5-12.5,74.43-21.88,114.74-62.15,175.25-76.52,4.04-.96,7.95,2,8.08,6.15Z"/>
      <path class="cls-1" d="M836.31,78.29c-2.17-.21-5.71-.15-9.7,1.51-.71.29-1.52.04-1.92-.61-4.19-6.72-27.98-40.67-87.07-52.59-.64-.13-1.08-.73-.97-1.38.2-1.16.34-3.08-.3-5.13-.16-.51.28-.99.8-.85,8.71,2.47,60.79,18.44,99.78,57.76.5.51.1,1.37-.61,1.3Z"/>
    </g>
    <g>
      <path class="cls-11" d="M696.2,8.43c-8.22-1.01-48.57-4.18-76.76,26.51-.28.3.11.76.45.53,8.61-5.88,38.38-23.87,73.08-18.24.85.14,1.65-.44,1.75-1.29.17-1.46.68-3.76,2.14-6.09.36-.58.03-1.33-.65-1.42Z"/>
      <path class="cls-11" d="M55.51,332.21c-6.01,3.16-30.27,17.25-42.52,44.24-.15.33.3.61.52.32,4.96-6.57,20.93-25.9,43.84-35.62.79-.34,1.18-1.24.85-2.03-.58-1.37-1.34-3.6-1.38-6.1-.01-.68-.71-1.12-1.31-.8Z"/>
      <path class="cls-11" d="M212.46,634.02c-3.44,4.75-17.49,26.01-17.86,56.53,0,.57.81.68.96.13,2.53-9.84,10.29-36.16,23.76-49.64.49-.49.41-1.31-.2-1.66-1.46-.83-3.86-2.51-5.37-5.28-.27-.49-.95-.54-1.28-.09Z"/>
      <path class="cls-11" d="M471.97,854.35c-1.22,5.4-6.2,31.73,5.41,57.53.16.35.7.19.62-.19-1.52-7.64-4.8-29.72,2.01-52.98.18-.61-.18-1.26-.81-1.4-1.49-.33-4.14-1.18-6.31-3.25-.31-.3-.84-.14-.93.28Z"/>
    </g>
  </g>
</svg>